<svg width="50" height="50" viewBox="0 0 50 50" fill="none" xmlns="http://www.w3.org/2000/svg">
<rect x="1" y="1" width="48" height="48" stroke="#141414" stroke-width="2"/>
<path d="M6.344 13.344C6.792 13.3653 7.37867 13.3867 8.104 13.408C8.82933 13.4293 9.544 13.44 10.248 13.44C11.2507 13.44 12.2107 13.4293 13.128 13.408C14.0453 13.3867 14.696 13.376 15.08 13.376C16.808 13.376 18.2373 13.6213 19.368 14.112C20.52 14.6027 21.3733 15.2747 21.928 16.128C22.504 16.96 22.792 17.8987 22.792 18.944C22.792 19.584 22.664 20.2667 22.408 20.992C22.152 21.7173 21.704 22.4 21.064 23.04C20.4453 23.68 19.592 24.2133 18.504 24.64C17.416 25.0453 16.04 25.248 14.376 25.248H11.304V24.608H14.056C15.5707 24.608 16.7227 24.3733 17.512 23.904C18.3227 23.4133 18.8667 22.7733 19.144 21.984C19.4427 21.1733 19.592 20.2773 19.592 19.296C19.592 17.6107 19.1867 16.3093 18.376 15.392C17.5867 14.4533 16.2213 13.984 14.28 13.984C13.2987 13.984 12.6587 14.1653 12.36 14.528C12.0613 14.8907 11.912 15.6267 11.912 16.736V32.608C11.912 33.376 11.976 33.952 12.104 34.336C12.232 34.72 12.4773 34.976 12.84 35.104C13.224 35.232 13.7787 35.3173 14.504 35.36V36C14.0133 35.9573 13.3947 35.936 12.648 35.936C11.9227 35.9147 11.1867 35.904 10.44 35.904C9.608 35.904 8.82933 35.9147 8.104 35.936C7.37867 35.936 6.792 35.9573 6.344 36V35.36C7.06933 35.3173 7.61333 35.232 7.976 35.104C8.36 34.976 8.616 34.72 8.744 34.336C8.872 33.952 8.936 33.376 8.936 32.608V16.736C8.936 15.9467 8.872 15.3707 8.744 15.008C8.616 14.624 8.36 14.368 7.976 14.24C7.61333 14.0907 7.06933 14.0053 6.344 13.984V13.344ZM11.432 24.704C12.584 24.7467 13.4907 24.8 14.152 24.864C14.8133 24.9067 15.3467 24.9493 15.752 24.992C16.1787 25.0347 16.584 25.088 16.968 25.152C18.3973 25.3867 19.4213 25.824 20.04 26.464C20.68 27.0827 21.1493 28.0533 21.448 29.376L22.248 32.64C22.4613 33.5787 22.6747 34.2613 22.888 34.688C23.1227 35.0933 23.4747 35.2853 23.944 35.264C24.3067 35.2427 24.6053 35.1253 24.84 34.912C25.096 34.6987 25.3627 34.4107 25.64 34.048L26.12 34.4C25.672 35.0613 25.2027 35.5733 24.712 35.936C24.2427 36.2773 23.5707 36.448 22.696 36.448C21.9067 36.448 21.2133 36.2133 20.616 35.744C20.0187 35.2747 19.5707 34.3573 19.272 32.992L18.568 29.792C18.376 28.8747 18.152 28.0853 17.896 27.424C17.6613 26.7413 17.32 26.208 16.872 25.824C16.4453 25.44 15.8053 25.248 14.952 25.248H11.496L11.432 24.704ZM33.942 12.992C35.0087 12.992 35.8193 13.12 36.374 13.376C36.9287 13.6107 37.4193 13.8773 37.846 14.176C38.102 14.3253 38.3047 14.4427 38.454 14.528C38.6247 14.592 38.7847 14.624 38.934 14.624C39.1473 14.624 39.2967 14.5067 39.382 14.272C39.4887 14.0373 39.574 13.6853 39.638 13.216H40.374C40.3527 13.5787 40.3207 14.016 40.278 14.528C40.2567 15.0187 40.2353 15.68 40.214 16.512C40.214 17.3227 40.214 18.4 40.214 19.744H39.478C39.414 18.72 39.19 17.7387 38.806 16.8C38.422 15.8613 37.8567 15.0933 37.11 14.496C36.3847 13.8987 35.4247 13.6 34.23 13.6C33.0993 13.6 32.1607 13.9413 31.414 14.624C30.6887 15.3067 30.326 16.2027 30.326 17.312C30.326 18.272 30.5713 19.0827 31.062 19.744C31.5527 20.384 32.2033 20.9707 33.014 21.504C33.846 22.016 34.742 22.5707 35.702 23.168C36.8113 23.8507 37.7927 24.5333 38.646 25.216C39.5207 25.8773 40.2033 26.6133 40.694 27.424C41.206 28.2347 41.462 29.216 41.462 30.368C41.462 31.7333 41.1527 32.864 40.534 33.76C39.9153 34.656 39.094 35.328 38.07 35.776C37.046 36.224 35.9153 36.448 34.678 36.448C33.5473 36.448 32.6513 36.32 31.99 36.064C31.3287 35.808 30.7633 35.5413 30.294 35.264C29.8247 34.9653 29.462 34.816 29.206 34.816C28.9927 34.816 28.8327 34.9333 28.726 35.168C28.6407 35.4027 28.566 35.7547 28.502 36.224H27.766C27.8087 35.776 27.83 35.2533 27.83 34.656C27.8513 34.0373 27.862 33.2373 27.862 32.256C27.8833 31.2747 27.894 30.0373 27.894 28.544H28.63C28.7153 29.824 28.95 31.0187 29.334 32.128C29.7393 33.2373 30.3473 34.1333 31.158 34.816C31.99 35.4773 33.0887 35.808 34.454 35.808C35.158 35.808 35.8193 35.6693 36.438 35.392C37.078 35.0933 37.6007 34.6347 38.006 34.016C38.4113 33.376 38.614 32.5547 38.614 31.552C38.614 30.6773 38.4007 29.92 37.974 29.28C37.5687 28.6187 36.9927 28.0107 36.246 27.456C35.4993 26.88 34.6247 26.2933 33.622 25.696C32.6193 25.0773 31.6807 24.448 30.806 23.808C29.9313 23.168 29.2273 22.432 28.694 21.6C28.182 20.7467 27.926 19.7227 27.926 18.528C27.926 17.2693 28.2033 16.2347 28.758 15.424C29.334 14.592 30.0807 13.984 30.998 13.6C31.9153 13.1947 32.8967 12.992 33.942 12.992Z" fill="#323232"/>
<style>
  @media (prefers-color-scheme:dark){:root{filter:invert(100%)}}
</style>
</svg>
